<?xml version="1.0" encoding="UTF-8"?>
<svg width="512px" height="512px" viewBox="0 0 512 512" version="1.1" xmlns="http://www.w3.org/2000/svg" xmlns:xlink="http://www.w3.org/1999/xlink">
    <title>favicon</title>
    <defs>
        <linearGradient x1="89.6078297%" y1="3.81688315%" x2="-6.37970701%" y2="108.265067%" id="linearGradient-1">
            <stop stop-color="#0A6157" offset="0%"></stop>
            <stop stop-color="#002B26" offset="100%"></stop>
        </linearGradient>
        <linearGradient x1="50%" y1="0%" x2="50%" y2="100%" id="linearGradient-2">
            <stop stop-color="#00D5BE" offset="0%"></stop>
            <stop stop-color="#349380" offset="100%"></stop>
        </linearGradient>
        <linearGradient x1="50%" y1="0%" x2="50%" y2="100%" id="linearGradient-3">
            <stop stop-color="#024F47" offset="0%"></stop>
            <stop stop-color="#00211E" offset="100%"></stop>
            <stop stop-color="#003825" offset="100%"></stop>
        </linearGradient>
        <path d="M72,0 L440,0 C479.764502,-1.42108547e-14 512,32.235498 512,72 L512,440 C512,479.764502 479.764502,512 440,512 L72,512 C32.235498,512 0,479.764502 0,440 L0,72 C0,32.235498 32.235498,0 72,0 Z" id="path-4"></path>
    </defs>
    <g id="favicon" stroke="none" fill="none" xlink:href="#path-4">
        <path stroke="url(#linearGradient-2)" stroke-width="18" d="M503,72 L503,440 C503,474.793939 474.793939,503 440,503 L72,503 C37.2060608,503 9,474.793939 9,440 L9,72 C9,39.6458485 33.5085969,12.6402789 65.4305998,9.34319356 L72.2270892,9.00000023 L440,9 C474.793939,9 503,37.2060608 503,72 Z" stroke-linejoin="square" fill="url(#linearGradient-1)" fill-rule="evenodd"></path>
        <path stroke="url(#linearGradient-3)" stroke-width="14" d="M505,72 L505,440 C505,475.898509 475.898509,505 440,505 L72,505 C36.1014913,505 7,475.898509 7,440 L7,72 C7,38.6080763 32.3014702,10.7390557 65.2545528,7.34953501 L72.176621,7.00000038 L440,7 C475.898509,7 505,36.1014913 505,72 Z" stroke-linejoin="square"></path>
        <path d="M385.449685,236.184668 L404.626264,248.608073 C408.402236,251.055551 409.627393,256.344929 407.362129,260.423485 C406.687335,261.636028 405.747729,262.6505 404.626264,263.377337 L256.498721,359.333633 L108.372933,263.377337 C104.595525,260.929859 103.370528,255.640482 105.637068,251.561926 C106.310585,250.349382 107.250191,249.334911 108.372933,248.608073 L127.549352,236.184668 L256.498721,319.719281 L385.449685,236.184668 Z M385.449685,317.135736 L404.626264,329.559141 C408.402236,332.006619 409.627393,337.295997 407.362129,341.374553 C406.687335,342.587096 405.747729,343.601568 404.626264,344.328405 L264.706316,434.967766 C259.654138,438.241978 253.343304,438.241978 248.291126,434.967766 L108.372933,344.328405 C104.595525,341.880927 103.370528,336.59155 105.637068,332.512994 C106.310585,331.30045 107.250191,330.285979 108.372933,329.559141 L127.549352,317.135736 L256.498721,400.670349 L385.449685,317.135736 Z M264.706316,77.8777928 L404.626264,168.518187 C408.402236,170.965148 409.627393,176.255042 407.362129,180.333426 C406.687335,181.545625 405.747729,182.560097 404.626264,183.287279 L256.498721,279.243747 L108.372933,183.287279 C104.595525,180.840317 103.370528,175.550423 105.637068,171.47204 C106.310585,170.259841 107.250191,169.245541 108.372933,168.518187 L248.291126,77.8777928 C253.343304,74.6053028 259.654138,74.6053028 264.706316,77.8777928 Z" id="Shape" fill="#EDFFFD" fill-rule="nonzero"></path>
    </g>
</svg>